# xmcd CD database file
#
# Track frame offsets:
#	150
#	21967
#	41470
#	62277
#	79827
#	108287
#	127355
#	152327
#	177217
#	198250
#
# Disc length: 2861 seconds
#
# Revision: 2
# Processed by: cddbd v1.5PL3 Copyright (c) Steve Scherf et al.
# Submitted via: CDex 1.51
#
DISCID=770b2b0a
DTITLE=松山千春 - 起承転結 8 [COCP-30362]
DYEAR=1999
DGENRE=Vocal
TTITLE0=あなたのために
TTITLE1=10月・雨
TTITLE2=逢いたくて
TTITLE3=愛よ永遠に
TTITLE4=ひまわり
TTITLE5=ねえ君
TTITLE6=クリスマス
TTITLE7=雪化粧
TTITLE8=この世で君が一番好き
TTITLE9=大空と大地の中で
EXTD=YEAR: 1999
EXTT0=
EXTT1=
EXTT2=
EXTT3=
EXTT4=
EXTT5=
EXTT6=
EXTT7=
EXTT8=
EXTT9=
PLAYORDER=
